<?xml version="1.0" encoding="utf-8"?>
<!-- Generator: Adobe Illustrator 24.3.0, SVG Export Plug-In . SVG Version: 6.00 Build 0)  -->
<svg version="1.1" id="레이어_1" xmlns="http://www.w3.org/2000/svg" xmlns:xlink="http://www.w3.org/1999/xlink" x="0px"
	 y="0px" viewBox="0 0 1920 1080" style="enable-background:new 0 0 1920 1080;" xml:space="preserve">
<style type="text/css">
	.st0{fill:#E84745;}
	.st1{fill:#052C69;}
</style>
<g>
	<rect x="826.4" y="479.3" class="st0" width="392.6" height="118.6"/>
	<g>
		<rect x="830.8" y="158.3" class="st1" width="160.8" height="281.5"/>
		<rect x="830.8" y="637.5" class="st1" width="160.8" height="292.2"/>
	</g>
	<rect x="735.6" y="158.3" class="st1" width="54.2" height="771.4"/>
	<path class="st1" d="M284.6,674.3H27.4c-6.8,164.9,112.7,266.4,257.2,272V674.3L284.6,674.3z"/>
	<path class="st1" d="M397,158.3L396.3,949c123.1,0.2,217.3-78.1,219.8-207.9V158.3H397z"/>
	<path class="st1" d="M1888.7,693.3c-85.9,0-155.6-69.7-155.6-155.6S1802.8,382,1888.7,382c3.5,0,6.9,0.3,10.3,0.5V159.7
		c-10.6-0.9-21.2-1.4-32-1.4c-209.5,0-379.4,169.9-379.4,379.4c0,209.5,169.9,379.4,379.4,379.4c10.8,0,21.4-0.6,32-1.4V692.7
		C1895.6,693,1892.2,693.3,1888.7,693.3z"/>
	<g>
		<rect x="1219" y="158.3" class="st1" width="198.6" height="771.4"/>
	</g>
	<g>
		<rect x="1152.9" y="158.3" class="st1" width="31.8" height="281.5"/>
		<rect x="1152.9" y="637.5" class="st1" width="31.8" height="292.2"/>
	</g>
</g>
</svg>
