<svg id="Layer_1" data-name="Layer 1" xmlns="http://www.w3.org/2000/svg" viewBox="0 0 885 157"><defs><style>.cls-1{fill:#052c69;}.cls-2{fill:#e84743;}</style></defs><path class="cls-1" d="M439.7,21.79c0,13.3,3.89,26.68,15.37,33.42l-6.65,8.29c-7.08-4.14-11.57-11-14.16-19.43-2.76,9.07-7.42,16.84-14.59,21.33L412.93,57c11.57-7.34,15.72-21.58,15.72-35.23V17.91H415.87V8.67h35.4v9.24H439.7ZM455.85,2h10.62V76.63H455.85V37.08h-10.1V27.84h10.1ZM482.7.63V80.17H471.91V.63Z"/><path class="cls-1" d="M538,34.57c0,17.53-8.89,28.5-20.9,28.5s-20.9-11-20.9-28.5,8.9-28.32,20.9-28.32S538,17.13,538,34.57Zm-30.83,0c0,11.83,4.06,18.14,9.93,18.14S527,46.4,527,34.57s-4.06-18-9.93-18S507.14,22.83,507.14,34.57ZM559.82.63v79.8h-11.4V.63Z"/><path class="cls-1" d="M614.65,2h10.62V76.71H614.65V39.23h-6.22c-1,15.55-7.51,24.87-17.18,24.87-10.54,0-17.19-10.88-17.19-28.92s6.65-28.85,17.19-28.85c9.41,0,15.8,8.81,17.1,23.67h6.3ZM598.16,35.18C598.16,23,595.65,17,591.25,17s-6.91,6-6.91,18.14,2.59,18.22,6.91,18.22S598.16,47.44,598.16,35.18ZM641.59.63V80.17H630.8V.63Z"/><path class="cls-1" d="M696.86,34.57c0,17.53-8.9,28.5-20.9,28.5s-20.9-11-20.9-28.5S664,6.25,676,6.25,696.86,17.13,696.86,34.57Zm-30.83,0c0,11.83,4.06,18.14,9.93,18.14s9.93-6.31,9.93-18.14-4.06-18-9.93-18S666,22.83,666,34.57ZM718.7.63v79.8H707.31V.63Z"/><path class="cls-1" d="M763.26,25.5c0,11.49,6.31,24.44,19.34,30.06l-6,8.72c-9-3.72-15.28-11.31-18.83-20.38-3.53,9.58-9.93,17.7-19,21.76l-6.13-8.72c13-5.87,19.25-19.35,19.25-31.44V22.74H735.28V13.67h16.58v-11h11.4V13.67H779.5v9.07H763.26Zm35-24.78V80.25H786.84V.72Z"/><path class="cls-1" d="M854.19,20.41c0,12.78,1.47,26.51,11.66,34.37L858.94,63c-5.18-4.06-8.38-9.93-10.28-17-1.9,7.34-5.26,13.64-10.79,17.88-5.53-4.24-8.81-10.54-10.79-17.62-1.9,6.74-4.93,12.43-9.76,16.32L810,54.78c10.1-7.86,11.57-21.68,11.57-34.37V7h10.71V20.41c0,9.15.77,19.6,5.61,27.72,4.75-8,5.53-18.39,5.53-27.72V7h10.79ZM879.49.72V80.25h-11.4V.72Z"/><path class="cls-1" d="M405,141.82l8.94-6.67c1.9,3.73,4.69,5.42,7.32,5.42,4.25,0,6.52-2.12,6.52-9.23v-35h13.11v36c0,10.69-5.64,19.48-17.87,19.48C414.48,151.85,408.92,148.55,405,141.82Z"/><path class="cls-1" d="M451.85,96.33H465v20.73h17.94V96.33h13v54.49h-13V128.41H465v22.41H451.85Z"/><path class="cls-1" d="M504.83,123.87c0-18.16,12.16-28.56,26-28.56a23.18,23.18,0,0,1,16.55,7.1l-6.88,8.35c-2.71-2.49-5.57-4.25-9.45-4.25-7,0-12.82,6.3-12.82,16.92,0,10.84,5,17.14,12.67,17.14a14.19,14.19,0,0,0,10.41-5l6.88,8.2a22.66,22.66,0,0,1-17.8,8.06C516.55,151.85,504.83,142.33,504.83,123.87Z"/><path class="cls-1" d="M553,123.94c0-16.92,9.23-27.46,22.12-27.46,13,0,22.19,10.54,22.19,27.46s-9.15,27.84-22.19,27.84C562.27,151.78,553,140.94,553,123.94Zm39.77,0c0-14.5-7-23.51-17.65-23.51s-17.5,9-17.5,23.51,7,23.88,17.5,23.88S592.81,138.45,592.81,123.94Z"/><path class="cls-1" d="M608.36,97.43h4.54l21.83,36.69,5.93,10.77H641c-.3-5.27-.59-10.62-.59-15.82V97.43h4.18v53.39h-4.55l-21.75-36.76-6-10.7H612c.22,5.13.59,10.11.59,15.46v32h-4.18Z"/><path class="cls-1" d="M655.55,124.09c0-17.07,9.45-27.61,23-27.61a18.44,18.44,0,0,1,14.06,6.44l-2.49,2.86a15,15,0,0,0-11.57-5.35c-11.28,0-18.39,9.09-18.39,23.51,0,14.58,7,23.88,18.17,23.88,5.42,0,9.45-2.27,13.26-6.44l2.49,2.78c-4.11,4.76-9.09,7.62-16,7.62C664.92,151.78,655.55,141.16,655.55,124.09Z"/><path class="cls-1" d="M703.61,97.43H708v53.39h-4.4Z"/><path class="cls-1" d="M722.3,97.43h29.51v3.73H726.69v19.49h21.17v3.73H726.69V147h25.93v3.8H722.3Z"/><path class="cls-1" d="M792.55,150.82l-14.21-24.09H767.43v24.09H763V97.43h15.61c10.62,0,17.79,3.88,17.79,14.28,0,8.5-5.2,13.41-13.33,14.65l14.43,24.46Zm-25.12-27.76h10.18c9.23,0,14.35-3.66,14.35-11.35s-5.12-10.62-14.35-10.62H767.43Z"/><path class="cls-1" d="M803,124.09c0-17.07,9.74-27.61,23.8-27.61a19.7,19.7,0,0,1,14.8,6.44L839,105.78a15.62,15.62,0,0,0-12.16-5.35c-11.86,0-19.26,9.09-19.26,23.51,0,14.58,7,23.88,19,23.88,4.54,0,8.94-1.39,11.35-3.81V128H825.52v-3.73h16.63V145.7c-3.37,3.59-8.93,6.08-16,6.08C812.34,151.78,803,141.16,803,124.09Z"/><path class="cls-1" d="M854.4,97.43h29.52v3.73H858.79v19.49H880v3.73H858.79V147h25.93v3.8H854.4Z"/><rect class="cls-2" x="157.93" y="64.16" width="77.57" height="23.42"/><rect class="cls-1" x="158.79" y="0.72" width="31.76" height="55.62"/><rect class="cls-1" x="158.79" y="95.4" width="31.76" height="57.73"/><rect class="cls-1" x="139.99" y="0.72" width="10.71" height="152.41"/><path class="cls-1" d="M50.87,102.68H.06c-1.35,32.59,22.27,52.62,50.81,53.74V102.68Z"/><path class="cls-1" d="M73.08.72,73,157c24.31,0,42.94-15.44,43.43-41.07V.72Z"/><path class="cls-1" d="M367.82,106.42a30.75,30.75,0,0,1,0-61.49c.69,0,1.36.06,2,.1V1c-2.09-.17-4.2-.28-6.33-.28a75,75,0,1,0,0,149.91c2.13,0,4.24-.11,6.33-.28v-44C369.18,106.36,368.51,106.42,367.82,106.42Z"/><rect class="cls-1" x="235.49" y="0.72" width="39.23" height="152.41"/><rect class="cls-1" x="222.45" y="0.72" width="6.28" height="55.62"/><rect class="cls-1" x="222.45" y="95.4" width="6.28" height="57.73"/></svg>