<?xml version="1.0" encoding="utf-8"?>
<!-- Generator: Adobe Illustrator 24.3.0, SVG Export Plug-In . SVG Version: 6.00 Build 0)  -->
<svg version="1.1" id="레이어_1" xmlns="http://www.w3.org/2000/svg" xmlns:xlink="http://www.w3.org/1999/xlink" x="0px"
	 y="0px" viewBox="0 0 24 24" style="enable-background:new 0 0 24 24;" xml:space="preserve">
<style type="text/css">
	.st0{fill:none;stroke:#000000;stroke-width:13;stroke-miterlimit:10;}
	.st1{fill:none;stroke:#000000;stroke-width:1.5;stroke-miterlimit:10;}
	.st2{opacity:0.2;}
	.st3{fill:#FFFFFF;}
	.st4{fill:#052C69;}
	.st5{fill:#E84743;}
	.st6{fill:#AAAAAA;}
	.st7{fill:#333333;}
</style>
<g>
	<path d="M12.05,23.01c-2.17,0-4.34,0-6.51,0c-0.81,0-1.29-0.48-1.29-1.29c0-3.69,0.01-7.37-0.01-11.06c0-0.72,0.53-1.34,1.29-1.29
		C6.08,9.4,6.07,9.37,6.08,8.82c0.01-0.78-0.05-1.56,0.04-2.34c0.17-1.56,0.85-2.87,2.03-3.89c1.23-1.07,2.68-1.53,4.3-1.46
		c2.69,0.13,5.1,2.29,5.52,4.96c0.13,0.81,0.06,1.63,0.08,2.45c0.01,0.21,0.01,0.42,0,0.62c-0.01,0.15,0.04,0.22,0.2,0.21
		c0.16-0.01,0.33,0,0.49,0c0.61,0.01,1.1,0.49,1.14,1.1c0,0.04,0,0.09,0,0.13c0,3.72,0,7.45,0,11.17c0,0.61-0.36,1.07-0.93,1.21
		c-0.12,0.03-0.25,0.03-0.38,0.03C16.4,23.01,14.23,23.01,12.05,23.01z M12.07,10.02c-2.16,0-4.32,0-6.49,0
		c-0.51,0-0.69,0.17-0.69,0.68c0,3.66,0,7.31,0,10.97c0,0.52,0.17,0.69,0.7,0.69c4.31,0,8.62,0,12.93,0c0.54,0,0.71-0.17,0.71-0.7
		c0-3.64,0-7.28,0-10.92c0-0.54-0.16-0.71-0.7-0.71C16.38,10.02,14.23,10.02,12.07,10.02z M12.07,9.38c1.14,0,2.29,0,3.43,0
		c0.13,0,0.25,0.01,0.25-0.19c-0.02-0.82,0.04-1.63-0.04-2.45c-0.17-1.95-1.99-3.6-4.22-3.25C9.56,3.8,8.37,5.48,8.41,7.12
		c0.01,0.66,0.01,1.32,0,1.98c0,0.22,0.07,0.28,0.28,0.28C9.82,9.37,10.95,9.38,12.07,9.38z M17.41,7.98
		c-0.01-0.56,0.03-1.13-0.06-1.69c-0.51-3.02-3.26-4.95-6.29-4.42c-2.13,0.38-3.9,2.18-4.24,4.32c-0.16,1-0.05,2.02-0.08,3.03
		c0,0.13,0.06,0.17,0.18,0.16c0.21,0,0.42-0.01,0.62,0c0.16,0.01,0.21-0.06,0.21-0.21c-0.01-0.27,0-0.53,0-0.8
		C7.75,7.69,7.7,7.01,7.82,6.34c0.5-2.9,3.84-4.47,6.38-2.98c1.43,0.84,2.16,2.13,2.2,3.79c0.02,0.65,0,1.29,0,1.94
		c0,0.29,0,0.29,0.3,0.29c0.16,0,0.33-0.01,0.49,0c0.17,0.01,0.22-0.05,0.22-0.22C17.4,8.77,17.41,8.37,17.41,7.98z"/>
	<path d="M14.04,15.09c-0.01,0.32-0.23,0.82-0.69,1.21c-0.12,0.1-0.17,0.21-0.17,0.36c0.01,0.56,0,1.13,0,1.69
		c0,0.69-0.47,1.19-1.11,1.2c-0.63,0.01-1.13-0.52-1.14-1.21c0-0.51-0.01-1.03,0-1.54c0.01-0.25-0.06-0.42-0.25-0.6
		c-0.61-0.57-0.77-1.41-0.46-2.17c0.31-0.75,1.06-1.24,1.86-1.23C13.18,12.83,14.05,13.72,14.04,15.09z M11.59,17.33
		c0,0.33,0,0.67,0,1c0,0.35,0.21,0.58,0.49,0.57c0.28-0.01,0.46-0.23,0.46-0.57c0-0.62,0.01-1.25,0-1.87
		c-0.01-0.27,0.07-0.44,0.3-0.59c0.53-0.35,0.7-1.04,0.44-1.62c-0.25-0.57-0.87-0.88-1.49-0.75c-0.54,0.11-0.93,0.52-1.04,1.07
		c-0.1,0.51,0.13,1.06,0.59,1.35c0.18,0.11,0.25,0.25,0.25,0.46C11.58,16.69,11.59,17.01,11.59,17.33z"/>
</g>
</svg>
