<?xml version="1.0" encoding="utf-8"?>
<!-- Generator: Adobe Illustrator 24.3.0, SVG Export Plug-In . SVG Version: 6.00 Build 0)  -->
<svg version="1.1" id="레이어_1" xmlns="http://www.w3.org/2000/svg" xmlns:xlink="http://www.w3.org/1999/xlink" x="0px"
	 y="0px" viewBox="0 0 24 24" style="enable-background:new 0 0 24 24;" xml:space="preserve">
<style type="text/css">
	.st0{fill:none;stroke:#000000;stroke-width:13;stroke-miterlimit:10;}
	.st1{fill:none;stroke:#000000;stroke-width:1.5;stroke-miterlimit:10;}
	.st2{opacity:0.2;}
	.st3{fill:#FFFFFF;}
	.st4{fill:#333333;}
</style>
<g>
	<path class="st4" d="M15.93,21c-0.17-0.08-0.31-0.21-0.44-0.34c-2.69-2.69-5.37-5.38-8.06-8.06c-0.16-0.16-0.28-0.33-0.29-0.56
		c-0.01-0.18,0.05-0.35,0.17-0.49c0.03-0.04,0.07-0.08,0.11-0.12c2.72-2.72,5.44-5.44,8.16-8.16C15.73,3.12,15.9,3,16.14,3
		c0.29,0,0.51,0.13,0.64,0.39c0.13,0.25,0.11,0.5-0.05,0.73c-0.06,0.08-0.13,0.15-0.2,0.22c-2.5,2.5-4.99,4.99-7.49,7.49
		c-0.18,0.18-0.18,0.18,0,0.36c2.46,2.46,4.92,4.92,7.38,7.38c0.04,0.04,0.07,0.08,0.11,0.11c0.48,0.41,0.44,1.04-0.17,1.32
		C16.21,21,16.07,21,15.93,21z"/>
</g>
</svg>
