<?xml version="1.0" encoding="utf-8"?>
<!-- Generator: Adobe Illustrator 24.3.0, SVG Export Plug-In . SVG Version: 6.00 Build 0)  -->
<svg version="1.1" id="레이어_1" xmlns="http://www.w3.org/2000/svg" xmlns:xlink="http://www.w3.org/1999/xlink" x="0px"
	 y="0px" viewBox="0 0 24 24" style="enable-background:new 0 0 24 24;" xml:space="preserve">
<style type="text/css">
	.st0{fill:none;stroke:#000000;stroke-width:13;stroke-miterlimit:10;}
	.st1{fill:none;stroke:#000000;stroke-width:1.5;stroke-miterlimit:10;}
	.st2{opacity:0.2;}
	.st3{fill:#FFFFFF;}
	.st4{fill:#052C69;}
	.st5{fill:#E84743;}
	.st6{fill:#333333;}
</style>
<g>
	<path class="st6" d="M8.07,3c0.17,0.08,0.31,0.21,0.44,0.34c2.69,2.69,5.37,5.38,8.06,8.06c0.16,0.16,0.28,0.33,0.29,0.56
		c0.01,0.18-0.05,0.35-0.17,0.49c-0.03,0.04-0.07,0.08-0.11,0.12c-2.72,2.72-5.44,5.44-8.16,8.16C8.27,20.88,8.1,21,7.86,21
		c-0.29,0-0.51-0.13-0.64-0.39c-0.13-0.25-0.11-0.5,0.05-0.73c0.06-0.08,0.13-0.15,0.2-0.22c2.5-2.5,4.99-4.99,7.49-7.49
		c0.18-0.18,0.18-0.18,0-0.36c-2.46-2.46-4.92-4.92-7.38-7.38C7.55,4.39,7.51,4.35,7.47,4.32C7,3.91,7.03,3.28,7.65,3
		C7.79,3,7.93,3,8.07,3z"/>
</g>
</svg>
