<?xml version="1.0" encoding="utf-8"?>
<!-- Generator: Adobe Illustrator 24.3.0, SVG Export Plug-In . SVG Version: 6.00 Build 0)  -->
<svg version="1.1" id="레이어_1" xmlns="http://www.w3.org/2000/svg" xmlns:xlink="http://www.w3.org/1999/xlink" x="0px"
	 y="0px" viewBox="0 0 24 24" style="enable-background:new 0 0 24 24;" xml:space="preserve">
<style type="text/css">
	.st0{fill:none;stroke:#000000;stroke-width:13;stroke-miterlimit:10;}
	.st1{fill:none;stroke:#000000;stroke-width:1.5;stroke-miterlimit:10;}
	.st2{opacity:0.2;}
	.st3{fill:#FFFFFF;}
	.st4{fill:#052C69;}
	.st5{fill:#E84743;}
	.st6{fill:#AAAAAA;}
	.st7{fill:#333333;}
	.st8{fill:none;stroke:#000000;stroke-width:2;stroke-miterlimit:10;}
	.st9{fill:none;stroke:#000000;stroke-width:2;stroke-linecap:round;stroke-miterlimit:10;}
</style>
<g>
	<path d="M21,8.07c-0.08,0.17-0.21,0.31-0.34,0.44c-2.69,2.69-5.38,5.37-8.06,8.06c-0.16,0.16-0.33,0.28-0.56,0.29
		c-0.18,0.01-0.35-0.05-0.49-0.17c-0.04-0.03-0.08-0.07-0.12-0.11C8.72,13.87,6,11.15,3.28,8.43C3.12,8.27,3,8.1,3,7.86
		c0-0.29,0.13-0.51,0.39-0.64c0.25-0.13,0.5-0.11,0.73,0.05c0.08,0.06,0.15,0.13,0.22,0.2c2.5,2.5,4.99,4.99,7.49,7.49
		c0.18,0.18,0.18,0.18,0.36,0c2.46-2.46,4.92-4.92,7.38-7.38c0.04-0.04,0.08-0.07,0.11-0.11C20.09,7,20.72,7.03,21,7.65
		C21,7.79,21,7.93,21,8.07z"/>
</g>
</svg>
