<?xml version="1.0" encoding="utf-8"?>
<!-- Generator: Adobe Illustrator 24.3.0, SVG Export Plug-In . SVG Version: 6.00 Build 0)  -->
<svg version="1.1" id="레이어_1" xmlns="http://www.w3.org/2000/svg" xmlns:xlink="http://www.w3.org/1999/xlink" x="0px"
	 y="0px" viewBox="0 0 36 36" style="enable-background:new 0 0 36 36;" xml:space="preserve">
<style type="text/css">
	.st0{fill:none;stroke:#000000;stroke-width:13;stroke-miterlimit:10;}
	.st1{fill:none;stroke:#000000;stroke-width:1.5;stroke-miterlimit:10;}
	.st2{fill:#E84743;}
	.st3{fill:#666666;}
	.st4{opacity:0.2;}
	.st5{fill:#FFFFFF;}
	.st6{fill:#052C69;}
	.st7{fill:#333333;}
</style>
<path class="st2" d="M35.7,11.91c-0.57,1.93-1.14,3.86-1.71,5.79c-0.48,1.65-0.96,3.29-1.45,4.94c-0.54,1.8-1.92,2.82-3.8,2.82
	c-4.45,0-8.89,0-13.34,0c-2.08,0-3.41-0.99-3.98-2.99c-1.52-5.3-3.04-10.6-4.56-15.9C6.53,5.39,5.77,4.81,4.55,4.81
	c-1.13,0-2.26,0-3.39,0c-0.55,0-0.9-0.36-0.86-0.85c0.03-0.35,0.3-0.68,0.67-0.69C2.38,3.25,3.8,3.14,5.21,3.31
	c1.64,0.2,2.66,1.2,3.13,2.78c0.25,0.85,0.51,1.7,0.72,2.56c0.09,0.38,0.26,0.5,0.66,0.5c7.84-0.01,15.69-0.01,23.53-0.01
	c0.95,0,1.71,0.33,2.2,1.17c0.1,0.18,0.17,0.38,0.26,0.57C35.7,11.22,35.7,11.56,35.7,11.91z M21.69,10.69c-3.87,0-7.74,0-11.61,0
	c-0.42,0-0.42,0-0.31,0.4c1.06,3.7,2.12,7.39,3.18,11.08c0.33,1.15,1.11,1.74,2.31,1.74c4.49,0,8.98,0,13.47,0
	c1.2,0,1.98-0.58,2.32-1.73c0.72-2.43,1.43-4.86,2.14-7.29c0.31-1.05,0.62-2.1,0.92-3.15c0.18-0.65-0.11-1.03-0.78-1.05
	c-0.12,0-0.23,0-0.35,0C29.22,10.69,25.45,10.69,21.69,10.69z"/>
<path class="st2" d="M26.24,32.78c-0.97-0.29-1.74-0.84-2.13-1.81c-0.46-1.14-0.28-2.21,0.53-3.12c0.81-0.91,1.86-1.22,3.03-0.89
	c1.16,0.33,1.88,1.13,2.11,2.32c0.28,1.42-0.5,2.8-1.85,3.33c-0.15,0.06-0.3,0.11-0.45,0.17C27.06,32.78,26.65,32.78,26.24,32.78z
	 M26.84,31.25c0.8,0,1.44-0.62,1.45-1.4c0.01-0.8-0.65-1.47-1.43-1.47c-0.77,0-1.42,0.66-1.43,1.43
	C25.42,30.61,26.05,31.25,26.84,31.25z"/>
<path class="st2" d="M15.94,32.78c-0.94-0.27-1.7-0.78-2.1-1.7c-0.5-1.14-0.37-2.22,0.43-3.17c0.82-0.97,1.89-1.3,3.11-0.94
	c1.2,0.36,1.92,1.2,2.1,2.45c0.21,1.46-0.64,2.79-2.04,3.25c-0.11,0.04-0.22,0.07-0.33,0.11C16.72,32.78,16.33,32.78,15.94,32.78z
	 M16.52,31.25c0.8,0,1.44-0.61,1.46-1.4c0.02-0.77-0.68-1.48-1.44-1.47c-0.79,0.01-1.41,0.65-1.42,1.44
	C15.12,30.64,15.71,31.25,16.52,31.25z"/>
<polygon class="st2" points="34.17,10.22 9.71,9.94 9.78,10.28 9.11,10.28 10.59,14.34 10.59,14.34 12.22,22.5 14.78,24.17 
	28.29,24.17 30.89,23.5 34.56,11.44 "/>
<circle class="st2" cx="16.55" cy="29.64" r="1.83"/>
<circle class="st2" cx="26.91" cy="29.81" r="1.83"/>
</svg>
