<svg id="레이어_1" data-name="레이어 1" xmlns="http://www.w3.org/2000/svg" viewBox="0 0 512 512"><path d="M8.82,92c4.37-11.24,12.83-15.64,24.6-15.63q223.14.12,446.29,0c6.11,0,12,.85,16.85,4.79,6.8,5.46,9.24,12.79,7.5,21.15s-7.37,13.74-15.71,16a32.49,32.49,0,0,1-8.63.86q-223.16,0-446.29,0c-11.77,0-20.23-4.4-24.61-15.63Z"/><path d="M8.82,408.37c4.43-11.22,13-15.54,24.69-15.53q222.9.12,445.8.05c4.86,0,9.66.34,14.08,2.72a21.09,21.09,0,0,1,10.73,23.31c-2,9.31-9.82,15.75-20.13,16.62-1.44.12-2.9.09-4.35.09q-223.14,0-446.28.05c-11.76,0-20.22-4.43-24.54-15.7Z"/><path d="M8.82,249.71c5.09-11.29,13.94-15,26.09-15q222.75.35,445.49.1c6.91,0,13.15,1.23,18.09,6.4,6.19,6.46,7.78,14.14,4.63,22.33-3.25,8.41-9.77,13-18.9,13.49-1.77.1-3.55,0-5.32,0q-222.27,0-444.53.15c-12,0-20.59-3.9-25.55-15Z"/></svg>